<svg width="24" height="24" viewBox="0 0 24 24" fill="none" xmlns="http://www.w3.org/2000/svg">
<path fill-rule="evenodd" clip-rule="evenodd" d="M20.254 13.5H23.5V10.5H20.253C20.044 9.633 19.702 8.319 19.25 7.578L21.546 5.283L18.717 2.454L16.42 4.75C15.68 4.298 14.367 3.957 13.5 3.748V0.5H10.5V3.748C9.633 3.957 8.319 4.298 7.579 4.75L5.282 2.454L2.453 5.283L4.75 7.579C4.298 8.319 3.956 9.633 3.746 10.5H0.5V13.5H3.746C3.956 14.367 4.298 15.681 4.75 16.421L2.453 18.718L5.282 21.546L7.578 19.249C8.319 19.702 9.633 20.044 10.5 20.254V23.5H13.5V20.254C14.367 20.044 15.681 19.702 16.42 19.25L18.718 21.546L21.546 18.718L19.25 16.421C19.702 15.681 20.044 14.367 20.254 13.5V13.5Z" stroke="#6D7074" stroke-linecap="round" stroke-linejoin="round"/>
<path fill-rule="evenodd" clip-rule="evenodd" d="M16.5001 12C16.5001 14.486 14.4851 16.5 12.0001 16.5C9.51511 16.5 7.50011 14.486 7.50011 12C7.50011 9.515 9.51511 7.5 12.0001 7.5C14.4851 7.5 16.5001 9.515 16.5001 12V12Z" stroke="#6D7074" stroke-linecap="round" stroke-linejoin="round"/>
</svg>
