<svg width="25" height="25" viewBox="0 0 25 25" fill="none" xmlns="http://www.w3.org/2000/svg">
<path d="M16.9996 6.5C12.9996 6.5 12.9996 5 12.4996 4.5C11.9996 5 11.9996 6.5 7.9996 6.5" stroke="#6D7074" stroke-linecap="round" stroke-linejoin="round"/>
<path d="M18.4996 8L18.9996 6C18.9996 6 19.4996 1 12.4996 1C5.4996 1 5.9996 6 5.9996 6L6.4996 9C5.4996 9.5 5.9996 12 7.4996 12C7.4996 15 10.9996 17 12.4996 17C13.1206 17 14.1876 16.65 15.1346 15.975" stroke="#6D7074" stroke-linecap="round" stroke-linejoin="round"/>
<path d="M9.9 15.9746L3.595 17.7546C2.034 18.3396 1 19.8316 1 21.4996V23.9996H24V21.4996C24 19.8316 22.965 18.3396 21.404 17.7546L15.134 15.9746" stroke="#6D7074" stroke-linecap="round" stroke-linejoin="round"/>
<path d="M19.9996 11V12C19.8126 12.935 18.9526 14 17.9996 14H13.9996" stroke="#6D7074" stroke-linecap="round" stroke-linejoin="round"/>
<path fill-rule="evenodd" clip-rule="evenodd" d="M20.9996 9.5C20.9996 10.328 20.3276 11 19.4996 11H18.4996V8H19.4996C20.3276 8 20.9996 8.672 20.9996 9.5V9.5Z" stroke="#6D7074" stroke-linecap="round" stroke-linejoin="round"/>
<path d="M13.9991 14H11.9991" stroke="#6D7074" stroke-width="2" stroke-linecap="round" stroke-linejoin="round"/>
<path d="M9.4996 9.50003C9.4996 8.94703 9.9466 9.00003 10.4996 9.00003C11.0526 9.00003 11.4996 8.94703 11.4996 9.50003" stroke="#6D7074" stroke-linecap="round" stroke-linejoin="round"/>
<path d="M13.4996 9.50003C13.4996 8.94703 13.9466 9.00003 14.4996 9.00003C15.0526 9.00003 15.4996 8.94703 15.4996 9.50003" stroke="#6D7074" stroke-linecap="round" stroke-linejoin="round"/>
</svg>
